<svg 
  viewBox="0 0 712.84 289.64" 
  xmlns="http://www.w3.org/2000/svg"
  role="img"
  aria-label="Easy Planning Pro Logo - Event planning made easy"
>
  <defs>
    <style>
      .cls-1, .cls-2 {
        stroke: #231f20;
      }

      .cls-1, .cls-2, .cls-3 {
        stroke-miterlimit: 10;
        stroke-width: 10px;
      }

      .cls-1, .cls-4 {
        fill: hsl(220, 13%, 18%);
      }

      .cls-2 {
        fill: #fff;
      }

      .cls-3 {
        fill: #00aeef;
        stroke: #00aeef;
      }
    </style>
  </defs>
  <g id="Layer_1-2" data-name="Layer 1">
    <g>
      <g>
        <rect class="cls-2" x="5" y="31.12" width="260" height="234.63" rx="25" ry="25"/>
        <rect class="cls-2" x="51.58" y="5" width="28.42" height="54.48" rx="11" ry="11"/>
        <rect class="cls-2" x="186.18" y="5" width="28.42" height="54.48" rx="11" ry="11"/>
      </g>
      <path class="cls-4" d="M355.03,108.34v10.91h-47.12V49.18h45.86v10.91h-34.2v18.22h30.34v10.71h-30.34v19.32h35.45Z"/>
      <path class="cls-4" d="M406.65,87.92v31.33h-10.59v-6.51c-2.69,4.6-7.9,7.21-15.08,7.21-10.95,0-17.86-6.71-17.86-16.02s5.38-15.92,19.92-15.92h12.39v-.8c0-7.31-3.95-11.61-11.94-11.61-5.39,0-10.95,2-14.54,5.3l-4.4-9.11c5.12-4.4,12.57-6.61,20.28-6.61,13.82,0,21.81,7.31,21.81,22.72ZM395.43,102.53v-6.21h-11.58c-7.63,0-9.69,3.2-9.69,7.11,0,4.5,3.41,7.41,9.16,7.41s10.23-2.8,12.12-8.31Z"/>
      <path class="cls-4" d="M415.54,113.95l4.31-9.51c4.22,3.1,10.68,5.3,16.69,5.3,7.09,0,10.05-2.2,10.05-5.91,0-10.21-29.62-.6-29.62-21.92,0-10.11,8.17-16.72,21.09-16.72,6.37,0,13.64,1.7,17.95,4.6l-4.31,9.51c-4.58-3-9.15-4-13.73-4-6.82,0-10.05,2.5-10.05,6.01,0,10.81,29.62,1.2,29.62,22.12,0,10.01-8.26,16.52-21.72,16.52-7.99,0-15.98-2.6-20.28-6.01Z"/>
      <path class="cls-4" d="M511.22,65.8l-22.44,57.76c-4.4,12.11-10.5,15.81-18.49,15.81-4.76,0-9.78-1.8-12.83-4.9l4.49-9.21c2.15,2.3,5.21,3.7,8.26,3.7,3.95,0,6.28-2.1,8.44-7.41l.81-2.1-20.91-53.65h11.67l15.08,39.54,15.17-39.54h10.77Z"/>
      <path class="cls-4" d="M362.51,162.95c0,15.41-10.23,24.92-26.75,24.92h-14.18v20.22h-11.67v-70.07h25.85c16.51,0,26.75,9.41,26.75,24.92ZM350.75,162.95c0-8.81-5.29-13.91-15.53-13.91h-13.64v27.83h13.64c10.23,0,15.53-5.1,15.53-13.91Z"/>
      <path class="cls-4" d="M374,133.82h11.22v74.27h-11.22v-74.27Z"/>
      <path class="cls-4" d="M440.06,176.76v31.33h-10.59v-6.51c-2.69,4.61-7.9,7.21-15.08,7.21-10.95,0-17.86-6.71-17.86-16.02s5.38-15.92,19.92-15.92h12.39v-.8c0-7.31-3.95-11.61-11.94-11.61-5.39,0-10.95,2-14.54,5.31l-4.4-9.11c5.12-4.4,12.57-6.61,20.28-6.61,13.82,0,21.81,7.31,21.81,22.72ZM428.84,191.38v-6.21h-11.58c-7.63,0-9.69,3.2-9.69,7.11,0,4.5,3.41,7.41,9.16,7.41s10.23-2.8,12.12-8.31Z"/>
      <path class="cls-4" d="M501.64,177.46v30.63h-11.22v-29.03c0-9.51-4.22-14.11-11.4-14.11-7.99,0-13.37,5.4-13.37,16.12v27.03h-11.22v-53.45h10.68v6.91c3.68-4.9,9.51-7.51,16.51-7.51,11.49,0,20.01,7.31,20.01,23.42Z"/>
      <path class="cls-4" d="M563.12,177.46v30.63h-11.22v-29.03c0-9.51-4.22-14.11-11.4-14.11-7.99,0-13.37,5.4-13.37,16.12v27.03h-11.22v-53.45h10.68v6.91c3.68-4.9,9.51-7.51,16.51-7.51,11.49,0,20.01,7.31,20.01,23.42Z"/>
      <path class="cls-4" d="M575.87,138.32c0-4.2,3.05-7.51,7.18-7.51s7.18,3.1,7.18,7.21c0,4.4-2.96,7.81-7.18,7.81s-7.18-3.3-7.18-7.51ZM577.4,154.64h11.22v53.45h-11.22v-53.45Z"/>
      <path class="cls-4" d="M650.55,177.46v30.63h-11.22v-29.03c0-9.51-4.22-14.11-11.4-14.11-7.99,0-13.37,5.4-13.37,16.12v27.03h-11.22v-53.45h10.68v6.91c3.68-4.9,9.51-7.51,16.51-7.51,11.49,0,20.01,7.31,20.01,23.42Z"/>
      <path class="cls-4" d="M712.84,154.64v45.34c0,19.42-9.07,28.23-25.85,28.23-8.98,0-17.86-2.6-23.34-7.61l5.03-9.41c4.22,3.9,11.04,6.41,17.68,6.41,10.59,0,15.26-5.4,15.26-16.21v-2.8c-3.95,4.8-9.6,7.11-16.07,7.11-13.73,0-24.23-10.41-24.23-25.92s10.5-25.73,24.23-25.73c6.73,0,12.66,2.4,16.6,7.71v-7.11h10.68ZM701.8,179.77c0-9.01-6.1-15.12-14.54-15.12s-14.63,6.11-14.63,15.12,6.1,15.31,14.63,15.31,14.54-6.21,14.54-15.31Z"/>
      <path class="cls-4" d="M361.51,243.79c0,15.41-10.23,24.92-26.75,24.92h-14.18v20.22h-11.67v-70.07h25.85c16.51,0,26.75,9.41,26.75,24.92ZM349.75,243.79c0-8.81-5.29-13.91-15.53-13.91h-13.64v27.83h13.64c10.23,0,15.53-5.1,15.53-13.91Z"/>
      <path class="cls-4" d="M399.39,234.88v11.91c-.99-.2-1.79-.3-2.6-.3-8.53,0-13.91,5.61-13.91,16.52v25.92h-11.22v-53.45h10.68v7.81c3.23-5.61,9.07-8.41,17.05-8.41Z"/>
      <path class="cls-4" d="M404.51,262.21c0-16.02,10.77-27.33,25.49-27.33s25.58,11.31,25.58,27.33-10.68,27.43-25.58,27.43-25.49-11.41-25.49-27.43ZM444.27,262.21c0-10.21-6.1-16.72-14.27-16.72s-14.18,6.51-14.18,16.72,6.1,16.72,14.18,16.72,14.27-6.51,14.27-16.72Z"/>
      <path class="cls-4" d="M461.69,281.33c0-5,3.32-8.31,7.36-8.31s7.36,3.3,7.36,8.31-3.32,8.31-7.36,8.31-7.36-3.5-7.36-8.31Z"/>
      <path class="cls-4" d="M482.51,262.21c0-16.02,10.77-27.33,25.94-27.33,9.33,0,16.78,4.3,20.46,12.41l-8.62,5.61c-2.87-5.1-7.18-7.41-11.94-7.41-8.26,0-14.54,6.41-14.54,16.72s6.28,16.72,14.54,16.72c4.76,0,9.07-2.3,11.94-7.41l8.62,5.61c-3.68,8.01-11.13,12.51-20.46,12.51-15.17,0-25.94-11.41-25.94-27.43Z"/>
      <path class="cls-4" d="M533.94,262.21c0-16.02,10.77-27.33,25.49-27.33s25.58,11.31,25.58,27.33-10.68,27.43-25.58,27.43-25.49-11.41-25.49-27.43ZM573.7,262.21c0-10.21-6.1-16.72-14.27-16.72s-14.18,6.51-14.18,16.72,6.1,16.72,14.18,16.72,14.27-6.51,14.27-16.72Z"/>
      <path class="cls-4" d="M675.93,258.31v30.63h-11.22v-29.03c0-9.51-3.95-14.11-10.77-14.11-7.36,0-12.48,5.4-12.48,16.02v27.13h-11.22v-29.03c0-9.51-3.95-14.11-10.77-14.11-7.45,0-12.48,5.4-12.48,16.02v27.13h-11.22v-53.45h10.68v6.81c3.59-4.8,9.16-7.41,15.71-7.41,7,0,12.83,2.9,16.16,8.91,3.86-5.51,10.32-8.91,17.95-8.91,11.58,0,19.66,7.31,19.66,23.42Z"/>
      <g>
        <line class="cls-1" x1="265" y1="83.12" x2="5" y2="83.12"/>
        <g>
          <rect class="cls-2" x="180.29" y="185.61" width="48.2" height="43.5" rx="11" ry="11"/>
          <rect class="cls-2" x="110.36" y="185.61" width="48.2" height="43.5" rx="11" ry="11"/>
          <rect class="cls-2" x="40.44" y="185.61" width="48.2" height="43.5" rx="11" ry="11"/>
        </g>
        <rect class="cls-2" x="180.29" y="121.32" width="48.2" height="43.5" rx="11" ry="11"/>
        <rect class="cls-2" x="110.36" y="121.32" width="48.2" height="43.5" rx="11" ry="11"/>
        <rect class="cls-3" x="40.44" y="121.32" width="48.2" height="43.5" rx="11" ry="11"/>
      </g>
    </g>
  </g>
</svg>

